Coordinates
version=1
nRows=8
nColumns=40
inDegrees=yes

Units are S.I. units (second, meters, Newtons, ...)
Angles are in degrees.

endheader
time	pelvis_tilt	pelvis_list	pelvis_rotation	pelvis_tx	pelvis_ty	pelvis_tz	hip_flexion_r	hip_adduction_r	hip_rotation_r	knee_angle_r	knee_angle_r_beta	ankle_angle_r	subtalar_angle_r	mtp_angle_r	hip_flexion_l	hip_adduction_l	hip_rotation_l	knee_angle_l	knee_angle_l_beta	ankle_angle_l	subtalar_angle_l	mtp_angle_l	lumbar_extension	lumbar_bending	lumbar_rotation	arm_flex_r	arm_add_r	arm_rot_r	elbow_flex_r	pro_sup_r	wrist_flex_r	wrist_dev_r	arm_flex_l	arm_add_l	arm_rot_l	elbow_flex_l	pro_sup_l	wrist_flex_l	wrist_dev_l
      1.91000000	     -1.53931773	     -3.89502046	     -2.46922583	      0.75621546	      0.93495192	      0.43067527	     28.20122249	     -4.50420654	     -5.39568958	     57.35973196	     57.35973196	      4.22732889	    -18.21717586	      7.68571918	     12.54437740	     -3.16342986	     -9.91806248	     20.23628501	     20.23628501	     11.72899594	    -12.72650962	     -3.50250908	     -9.89471432	      4.74303832	      0.50926269	      2.09996269	    -12.16097215	     -5.15582790	     35.00669156	     45.40734990	      0.00000000	      0.00000000	     12.20753677	    -15.59098718	      2.72931131	     47.63888622	     45.88909750	      0.00000000	      0.00000000
      1.92314286	     -1.67115845	     -3.93899177	     -2.85526283	      0.75530924	      0.93491114	      0.43041802	     28.62161679	     -4.28401814	     -5.56212838	     54.40616785	     54.40616785	      4.40508244	    -17.83654533	      7.20586286	     12.11627792	     -3.17016844	    -10.08168563	     20.05021440	     20.05021440	     11.89719246	    -12.95330677	     -3.56388624	     -9.90533805	      4.88282785	      0.88927540	      0.70828783	    -12.45710383	     -5.25239472	     33.35570224	     45.48267360	      0.00000000	      0.00000000	     13.35333039	    -15.94103580	      2.50751240	     48.93973929	     45.94438294	      0.00000000	      0.00000000
      1.93628571	     -1.78109349	     -3.97675581	     -3.21833473	      0.75450779	      0.93482163	      0.43021451	     28.70285928	     -4.09862283	     -5.92468440	     50.90207057	     50.90207057	      3.51042492	    -17.65451096	      3.66443851	     11.66057300	     -3.20612322	    -10.43519607	     19.85966502	     19.85966502	     12.05236311	    -12.92579355	     -3.94819542	     -9.90447881	      4.97413809	      0.49330940	      0.70958237	    -12.28687933	     -6.57990436	     29.51210976	     45.77770545	      0.00000000	      0.00000000	     13.39407824	    -16.94362927	      2.43044090	     51.87276153	     46.03529944	      0.00000000	      0.00000000
      1.94942857	     -1.89052734	     -4.00273147	     -3.59596041	      0.75371061	      0.93470776	      0.43010064	     28.74688375	     -3.82117009	     -6.19913954	     47.38543577	     47.38543577	      3.54621949	    -17.01664119	      3.26005475	     11.20570891	     -3.22495749	    -10.76793035	     19.67386505	     19.67386505	     12.31966100	    -12.86267357	     -3.99623454	     -9.94469008	      5.07217041	      0.87229537	     -0.65464382	    -12.55100990	     -6.98008459	     28.16973843	     45.86678333	      0.00000000	      0.00000000	     14.45629828	    -17.24459220	      1.99860802	     53.29978839	     46.11497082	      0.00000000	      0.00000000
      1.96257143	     -2.07397690	     -4.08558342	     -3.91492984	      0.75297779	      0.93446462	      0.43002812	     28.70456170	     -3.50532138	     -6.68129062	     43.66565287	     43.66565287	      3.70145046	    -16.02788362	      3.28057307	     10.85180319	     -3.30341119	    -11.00244809	     19.51986915	     19.51986915	     12.58868850	    -12.82627549	     -4.06616336	     -9.85346998	      5.26231966	      0.81303255	     -1.82803837	    -12.81394813	     -7.18096618	     27.29736556	     45.91567107	      0.00000000	      0.00000000	     15.28939757	    -17.72377470	      1.71708978	     54.28428604	     46.16228414	      0.00000000	      0.00000000
      1.97571429	     -2.17733712	     -4.04404196	     -4.29608450	      0.75231248	      0.93420512	      0.43008310	     28.34982853	     -3.28383606	     -7.22982574	     39.48461931	     39.48461931	      2.53259921	    -15.30221991	     -0.41820292	     10.39203621	     -3.28786604	    -11.51121069	     19.34538658	     19.34538658	     12.89883519	    -12.45041647	     -4.38150634	     -9.89344666	      5.24749240	      0.49987591	     -1.70283569	    -12.75146936	     -9.45091820	     24.05367574	     46.30318266	      0.00000000	      0.00000000	     14.94881364	    -18.73226131	      1.03537923	     57.84672943	     46.32306021	      0.00000000	      0.00000000
      1.98885714	     -2.39744489	     -4.04297185	     -4.58656672	      0.75170988	      0.93379635	      0.43031337	     28.15404020	     -2.97150953	     -7.85970908	     35.53554177	     35.53554177	      2.73925415	    -13.77011760	     -0.11953375	     10.07133429	     -3.29500934	    -11.79541869	     19.15786472	     19.15786472	     13.09296921	    -12.41486768	     -4.43654865	     -9.72988095	      5.28556434	      0.51374971	     -2.93003469	    -12.89077813	     -9.61895624	     23.44828204	     46.33875235	      0.00000000	      0.00000000	     15.87930101	    -19.07579824	      0.69986278	     58.66591953	     46.37267993	      0.00000000	      0.00000000
      2.00200000	     -2.54643725	     -4.03718242	     -4.90181060	      0.75122917	      0.93343665	      0.43068486	     27.77084617	     -2.65064451	     -8.62611075	     31.48181030	     31.48181030	      2.93405946	    -11.69711016	      0.02418164	      9.62232487	     -3.30101737	    -12.13157620	     18.90600043	     18.90600043	     13.35005504	    -12.21137642	     -4.58604807	     -9.65137836	      5.30074449	      0.72311241	     -4.10127684	    -13.13636040	     -9.84805484	     22.84607666	     46.38224649	      0.00000000	      0.00000000	     16.68584144	    -19.32760101	      0.36358017	     59.83846530	     46.42668813	      0.00000000	      0.00000000
